<?xml version="1.0" encoding="UTF-8"?>
<svg id="Layer_2" data-name="Layer 2" xmlns="http://www.w3.org/2000/svg" xmlns:xlink="http://www.w3.org/1999/xlink" viewBox="0 0 473.86 473.86">
  <defs>
    <style>
      .cls-1 {
        fill: none;
      }

      .cls-2 {
        fill: #d1907b;
      }

      .cls-3 {
        fill: #251b1a;
      }

      .cls-4 {
        fill: #48648e;
      }

      .cls-5 {
        fill: #fffefe;
      }

      .cls-6 {
        fill: #c47d70;
      }

      .cls-7 {
        fill: #f3f5f5;
      }

      .cls-8 {
        fill: #ecbca1;
      }

      .cls-9 {
        clip-path: url(#clippath);
      }
    </style>
    <clipPath id="clippath">
      <circle class="cls-1" cx="236.93" cy="236.93" r="236.93"/>
    </clipPath>
  </defs>
  <g id="Layer_1-2" data-name="Layer 1">
    <g class="cls-9">
      <g>
        <path class="cls-5" d="M33.8,496.95H-9.49V-1.6h498.54v498.54h-42.32c-7.35-38.68-13.02-77.83-22.9-115.97-3-11.59-6.46-24.32-11.55-35.14-2.09-4.43-4.3-8.63-8.11-11.83-.48.52-.21,1.71-.24,2.43l-3.4.97c.06-1.73.34-5.89-.46-7.1-.23-.35-.77-.46-1-.68.72-6.14-6-5.33-9.73-6.81-.94-.37-5.21-3.56-5.83-2.92-.02,3.72.02,7.46,0,11.18,0,.28,0,.7,0,.97-.02,2.75.04,5.52,0,8.27l-3.4.49c.01-1.13-.02-2.27,0-3.4,2.84,1.62,2.99-2.19,0-1.46.07-4.97.17-10.11,0-15.08,6.07-.81.73-7.94-3.4-5.35-1.25-.67-3.02-1.07-4.38-1.95-2.34-1.51-5.47-5.88-8.27-4.38-.9-.46-2.88-.7-3.89-1.46.15,1.78.32,3.57.48,5.35l-3.4.97c-.21-2.76-.82-5.5-.97-8.27,0-.08.77-.4.27-1.43-.59-1.21-5.09-3.15-6.03-2.36-.22.19-.01.82-.08.87-.13.11-.61.15-.97.49-.86.78-.04.53,0,.97.05.48-.05.98,0,1.46l-3.4.97c-.25-1.93-.32-3.93-.72-5.84-.21-.35-3.88-2.1-4.63-2.42.77-2.67-3.69-3.97-5.52-3.33-.91.32-.9,2.05-2.27,1.87-.78-3.34-4.76-4.18-7.78-4.86.35,2.45.97,4.87,1.46,7.29l-3.4.97c-.35-1.64-1.88-9.99-2.55-10.59-.34-.31-8.26-3.29-8.64-3.03-.03.37.4.62.49.97.23.99.05,2.16.97,2.92.06.3-.07.7,0,.97.18.69.47.92.49.97.04.15-.04.33,0,.49-1.63.73-.8,2.99-2.92,2.43-.51-2.04-.9-4.36-1.46-6.32,3.44-1.83,2-2.77-.97-3.4-.07-.02-.09-.61-.48-.49-.11,1.51-.58,2.93-.98,4.38-2.31-.12-3.2.05-2.92-2.43.02-.16-.02-.33,0-.49.01-.08.37-.58.49-1.46.02-.16-.02-.33,0-.49,0-.08.38-.55.49-1.46.04-.32-.03-.65,0-.97,1.22-.09,1.24-3.43.91-3.85-.15-.2-.83.04-.91-.04-.79-.72-.7-1.53-.97-2.43-.51-1.7-.6-.56-1.27-1.14-1.94-1.67-1.41-1.55-1.65-3.73-.26-2.35-.35-5.21-2.43-6.81-.65,6.89-3.6,13.24-6.33,19.46-1.24-.12-2.3-1.17-2.43-2.43,2.4-5.45,6.33-16.94,6.15-22.71-.08-2.41-2.82-4.75-4.69-5.99.1-2.42-.11-4.88,0-7.3s-.14-3.94.49-6.32c.73-2.77,2.47-3.87,3.81-6.17,4.5-7.71,7.83-16.24,9.81-24.96,7.31,1.09,10.7-7.07,12.88-12.65,2.78-7.14,8.25-24.16,5.6-31.12,3.67-6.92,5.52-14.84,6.32-22.62,1.56-15.14-3.38-43.83-13.37-55.69-6.36-7.56-17.01-17.8-24.31-24.81-17.17-16.47-43.49-26.89-64.29-10.25-19.91-10.61-44.76-3.61-58.52,13.44-4.29,5.31-7.26,11.54-10.99,17.22-3.58,5.45-7.99,10.37-11.09,16.15-8.07,15.03-6.25,26.22-2.4,42.17,2.15,8.93,5.01,17.78,9.4,25.87-.54,1.01-1.02,7.02-.91,8.45.51,6.66,8.36,29.56,13.08,34.1,1.55,1.5,3.65,2.4,5.83,2.2,3.75,14.09,9.15,26.59,19.46,36.97.08,1.77-.12,3.59,0,5.35h-.49l-.49.49c-1.15.88-3.6,3.18-4.14,4.4-1.46,3.33,5.14,18.58,7.05,22.35.24,1.67-.99,2.24-2.43,2.43-2.22-4.41-4.43-8.49-5.97-13.24-.24-.74-1.06-5.83-1.8-5.24-.59,2.38-1.67,3.72-1.47,6.32-.67,2.41-2.22,1.62-3.6,2.48-2.91,1.82-2.19,8.42-2.97,9.67-.11.18-2.9,2.66-3.13,2.73-1.11.31-2.3-.76-3.91-.03-.89.4-2.05,2.2-2.44,3.15-.67.25-4.61,1.84-4.77,2.05-.21.28-1.35,5.72-1.56,6.71-1.06.06-2.28,0-2.92-.97.09-.43-.09-1.03,0-1.46.01-.05.37-.15.49-.97.09-.67.3-1.73-.7-1.43-.7.21-6.25,2.74-6.48,3.01-.48.59-1.32,6.3-1.58,7.66h-3.4c.09-.44-.09-1.02,0-1.46.03-.13.36-.61.49-1.46s.7-2.2.24-2.92c-2.94.6-5.08,2.07-8.02,2.92-1.79.52-4.71.13-5.35,2.92l-6.73,2.51c-.18,2.08-.36,4.17-.57,6.25l-3.4-.97c.03-.58.17-3.41-.25-3.41-1.04.67-7.01,2.95-7.31,3.39-.43.64-.61,7.79-.71,9.26-1.59.11-2.53-.74-3.4-1.95.09-1.26-.14-2.67,0-3.89.02-.17.81-.72.48-1.46-.95-.34-1.2.35-1.46.48-1.54.79-3.05,1.26-4.38,1.95-2.09-3.54-6.38,1.18-6.81,3.89-1.63.38-5.22,3.58-6.32,3.89s-2.57-.5-3.66-.5c-2.26,0-6.05,3.84-5.58,6.34-.81.74-.58.44-.97,1.46-.59,1.52,0,1.12,0,1.46-.03,1.78.02,3.57,0,5.35-.7-.17-2.07-.16-2.6-.47-.68-.39.19-1.9-1.29-1.48-.09-.57.3-1.65-.25-1.95-4.93.13-12.72,18.32-14.35,22.61-7.03,18.47-11.05,39.13-14.92,58.53-5.48,27.48-9.83,55.2-14.74,82.78Z"/>
        <path class="cls-4" d="M192.84,253.76c.71,14.91-.64,17.7,8.56,30.11,9.87,13.3,21.25,25.9,32.42,38.12.31.47.32.96.32,1.5,0,4.06-4.02,15.78-3.18,18.8,3.9,5.81,10.25,10.48,13.51,16.68.51.98,2.63,7.14,3.08,7.13.78-1.2,2.05-2.98,2.55-4.25,2.64-6.65-2.09-11.24-2.73-17.93-.58-6.06.83-8.22,3.92-12.98,6.76-10.42,15.07-20.53,22.19-30.82,5.32-7.69,15.61-20.77,17.06-29.63.9-5.5.79-12.21,1.02-17.7,1.88,1.23,4.62,3.57,4.69,5.99.18,5.77-3.75,17.26-6.15,22.71s-6.32,12.29-9.34,17.65c-5.52,9.8-11.74,19.32-18.15,28.55-.23.52,1.93,4.58,2.92,2.91,9.59-15.18,19.77-30.18,27.01-46.68,2.73-6.22,5.68-12.56,6.33-19.46,2.08,1.6,2.17,4.46,2.43,6.81-5.79,22.66-17.86,43.11-29.2,63.35-.19.34-.77.39-.95.71-1.59,2.82-1.87,3.75,0,6.46l1.19-.5c10.96-20.2,24.56-40.77,30.82-63.05.22-.79-.07-1.8,1.05-2.11.27.9.19,1.71.97,2.43.35,1.27.11,2.61,0,3.89-.03.32.04.66,0,.97l-.49,1.46c-.02.16.02.33,0,.49l-.49,1.46c-.02.16.02.33,0,.49-6.33,21.85-16.87,42.14-27.24,62.26l-3.39-3.89c-1.66,8.22-1.98,16.69-2.94,25.03l.02,126.24h-6.81l-.02-118.94c.73-8.91,1.03-18.07,1.24-26.98-.52-.01-3.89,8.83-4.02,9.6-1.02,6.14.03,13.18-1.11,19.32l.02,117h-7.78c.29-25.53.14-51.09.47-76.63.18-13.78.76-27.79.99-41.57,0-.32,0-.65,0-.97-.01-2.1.01-4.22,0-6.32-1.42,1.21-3.66,2.7-3.91,4.6-.48,40.33-.79,80.63-1.43,120.89h-7.3l1.94-113.33c-1.56,1.59-3.63,4.32-3.9,6.56-.15,35.65-1.39,71.17-1.45,106.77h-8.75c-.22-23.1.28-46.23.02-69.33-.27-24.02.34-53.36-5.03-76.68-.67-2.91-1.17-3.82-3.99-5.26-.45,0-.29,2.14-.24,2.67.8,8.71,3,17.86,3.88,26.76,3.07,31.14,1.51,65.24,1.97,96.77.12,8.35-.13,16.72-.02,25.07h-6.81c-.11-9,.14-18.01.02-27.01-.54-39.73.72-79.7-5.47-119.04-10.39-18.78-23.18-37.73-30.55-57.97-1-2.76-4.17-11.34-4.25-13.71-.02-.47,1.24-4.49,2.07-3.09,4.62,14.67,12.96,28.24,20.95,41.31,4.44,7.26,9.66,16.07,14.59,22.86,2.1,2.89,2.56,4.51,4.59.3-9.54-15.68-20.39-30.75-28.79-47.1-2.83-5.51-8.69-17.33-9.16-23.19-.21-2.6.88-3.94,1.47-6.32.74-.58,1.56,4.5,1.8,5.24,1.55,4.75,3.75,8.83,5.97,13.24,9.22,18.27,21.56,34.94,34.04,51.07.27-1.53,2.15-2.59,1.11-4.24-11.22-16.09-23.8-31.68-32.71-49.26-1.91-3.76-8.52-19.02-7.05-22.35.54-1.23,2.99-3.53,4.14-4.4.18-.14.32-.33.49-.49h.49c0,.1.47.53.49.97ZM237.1,387.51c.23-2.38,2.16-4.21,2.45-6.55.36-2.91-.67-8.45-1.04-11.62-.57-4.82-1.62-9.6-2.1-14.44-.52-1.61-2.65-2.12-4.16-2.4l4.85,35.01Z"/>
        <path class="cls-4" d="M214.73,496.95h-9.24c-.11-11.91.14-23.85.02-35.77-.25-25.16-.54-50.7-1.5-75.84-.27-7.19.08-19.03-1.55-25.69-.64-2.61-3.17-5.94-4.03-8.63-.13,7.8,1.28,15.73,1.72,23.57.5,8.9.1,17.92.97,26.75l.47,95.59h-9.73c-.1-2.99.14-6.02.02-9.02-1.5-38.79-.9-78.52-.99-117.44,0-.97,0-1.95,0-2.92-.02-6.87-.11-13.59,0-20.43,0-.32,0-.65,0-.97.07-3.27.66-8.57.47-11.37-.15-2.22-2.45-5.31-2.91-7.59l-.96,5.11c-1.13,44.04,0,88.23.5,132.27.12,10.78-.13,21.59-.02,32.36h-6.81l-1.48-151.53c.97-5.28.28-10.68.51-16.02.26-5.8,1.96-14.05,1.47-19.48-.24-2.63-1.66-4.97-2.21-7.52-.36,0-.63,1.36-.69,1.75-1.46,9.65-1.63,19.87-1.99,29.62-1.38,37.39.11,74.97.51,112.34.18,16.96-.4,33.96.47,50.85h-7.3c-.8-5.25-.31-10.54-.47-15.83-.94-31.27-1.42-62.53-1.95-93.87-.54-32.44-4.17-65.95,5.57-97.5.55-1.78.99-4.44,2.67-5.35,6.77,24.84,21.33,47.08,34.33,69.04-.78,1.53-.85,2.43-.76,4.15.71,12.64,4.84,25.51,4.39,38.41l.47,100.94Z"/>
        <path class="cls-4" d="M308.6,285.86c-.42,1.39.72,2.52.97,3.4.56,1.96.95,4.28,1.46,6.32,8.14,32.61,4.95,63.9,4.36,97.01-.4,22.41-.95,44.77-1.46,67.12-.28,12.4-.22,24.83-.47,37.23h-7.3c.82-14.62.31-29.34.47-44.04.47-43.17,3.34-89.92.02-132.76-.36-4.6-1.24-9.28-1.7-13.87-.35,3.13-2.65,6.35-2.72,9.49-.05,2.3.87,5.42,1.01,7.78,2.87,46.87.1,96.38-.5,143.46-.13,9.95.53,20.09-.47,29.93h-5.35c.11-33.48-.13-66.98-.02-100.46,0-1.39.53-2.59.53-3.85.07-19.73.19-39.47-1.24-59.12-1.04,2.92-2.9,5.85-3.18,8.98-.24,2.65.5,4.88.53,7.29.64,49.05-.88,98.11-.51,147.15h-6.81l.48-138.13c-1.01.07-1.05,2.41-1.7,2.42-.53,0-1.37-2.3-2.18-2.42l-.51,3.63.02,134.5h-8.27l-.02-121.37c.53-8.52,1.29-17.02,2.46-25.52l2.91,2.92c10.33-20.54,21.59-40.91,27.73-63.23.4-1.44.87-2.87.98-4.38.39-.13.41.47.48.49Z"/>
        <path class="cls-4" d="M82.92,328.66c.62-.57,5.37-3.91,5.83-3.4.72,19.08.77,38.07.96,57.17.17,17.44-4.63,37.85-7.19,55.51-2.85,19.66-5.55,39.35-8.35,59.01h-6.81c2.22-18.54,5.04-37.11,7.86-55.61,3.33-21.81,6.81-43.6,10.59-65.33.16-.89-1.79-6.98-2.16-6.98l-20.18,127.92h-9.24c5.86-45.9,16.04-91.03,25.78-136.19l1.06,1.12,2.82,6.17-1.94-31.13c.02-1.78-.03-3.57,0-5.35v-1.46c.39-1.02.17-.72.97-1.46Z"/>
        <path class="cls-7" d="M182.63,270.29c.47,5.86,6.33,17.68,9.16,23.19,8.4,16.36,19.25,31.43,28.79,47.1-2.02,4.22-2.48,2.6-4.59-.3-4.93-6.79-10.16-15.6-14.59-22.86-7.99-13.07-16.33-26.64-20.95-41.31-.83-1.41-2.09,2.61-2.07,3.09.08,2.37,3.24,10.96,4.25,13.71,7.37,20.24,20.16,39.19,30.55,57.97,6.19,39.34,4.93,79.31,5.47,119.04.12,9-.13,18.02-.02,27.01h-3.89l-.47-100.94c.45-12.9-3.68-25.77-4.39-38.41-.1-1.72-.02-2.63.76-4.15-13-21.95-27.56-44.19-34.33-69.04-1.68.92-2.12,3.57-2.67,5.35-9.74,31.55-6.12,65.06-5.57,97.5.52,31.34,1.01,62.6,1.95,93.87.16,5.29-.33,10.58.47,15.83h-3.89c-.41-9.15-.23-18.34-.47-27.5-.83-32.71-1.54-65.42-1.95-98.25-.26-21.08-1.96-42.61,1.59-63.54.78-4.59,4.83-16.95,4.73-20.09-.01-.37.11-.86-.25-.73-1.05.88-2.42.99-3.65,1.46.4-.95,1.55-2.75,2.44-3.15,1.61-.73,2.8.34,3.91.03.23-.06,3.02-2.55,3.13-2.73.79-1.26.06-7.86,2.97-9.67,1.38-.86,2.93-.07,3.6-2.48Z"/>
        <path class="cls-4" d="M389.34,322.82l-.97,84.14.95-3.67.99-1.68c8.98,31.18,12.95,63.49,18.97,95.33h-7.3l-14.83-78.8-1.65,9.92,12.59,68.88h-6.81l-7.54-42.81c-.34-.01-.65,1.37-.69,1.75-1,10.02.15,13.87,1.75,23.46.97,5.84,2.15,11.69,2.59,17.6h-8.27c.21-5.24.21-10.56.49-15.8,2.55-47.25,3.24-93.55,3.89-140.81.04-2.75-.02-5.52,0-8.27v-.97c.02-3.72-.02-7.46,0-11.18.62-.64,4.89,2.54,5.83,2.92Z"/>
        <path class="cls-4" d="M33.8,496.95c4.92-27.58,9.26-55.3,14.74-82.78,3.87-19.39,7.88-40.05,14.92-58.53,1.64-4.3,9.42-22.49,14.35-22.61.55.3.15,1.38.25,1.95,1.13,6.95.52,14.4,1.45,21.4l-.97-1.94-.84.86c-10.76,46.88-20.71,93.95-27.36,141.65h-6.32c6.87-50.55,16.54-100.64,30.62-149.63.35-.74-1.43-4.49-1.68-4.55-.99-.26-1.27,1.88-1.45,2.43-2.48,7.35-4.44,15.68-6.43,23.24-11.15,42.41-18.78,85.07-24.94,128.51h-6.32Z"/>
        <path class="cls-4" d="M399.07,329.63c.23.23.77.34,1,.68.8,1.2.52,5.37.46,7.1,0,.27-.46.96-.49,1.68-.47,9.82-.88,19.64-1.45,29.45l2.42-4.37c5.46,20.91,12.18,41.6,16.79,62.74,5.01,22.97,6.75,46.82,10.45,70.05h-4.86c-1.5-11.55-3.45-23.14-5.49-34.63-4.69-26.36-10.64-61.05-20.32-85.71-.2-.51-.18-1.17-.94-1.25l-1.37,5.94c11.69,37.73,18.32,76.71,24.71,115.66h-7.3c.14-2.01-.31-3.97-.64-5.93-5.41-32.58-10.68-65.34-20.29-96.95,1.41-22.26,1.11-44.73,1.47-67.11l.73-1.2c1.62,1.39,3.57,2.4,5.11,3.88Z"/>
        <path class="cls-4" d="M103.83,496.95h-4.38l1.5-12.89-1.26-18.24-4.13,31.13h-6.81l8.77-61.55-1.72-12.38-10.94,73.94h-6.81c1.5-12.23,3.18-24.45,4.93-36.65,2.71-18.87,4.86-40.36,8.84-58.77.12-.56.06-1.93.81-1.86l1.46,7.29-1.94-84.14c1.1-.31,4.69-3.51,6.32-3.89-.8,5.06.45,11.21.51,16.27.36,30.52.07,61.02.93,91.48,1.65,23.42,2.17,46.84,3.91,70.26Z"/>
        <path class="cls-4" d="M138.37,299.96c2.94-.85,5.08-2.32,8.02-2.92.46.72-.11,2.04-.24,2.92l-.49,1.46c-.09.43.09,1.02,0,1.46-3.6,17.88-3.22,28.4-2.9,46.43.73,40.35,2.3,80.81,3.4,121.11.24,8.83.17,17.7.47,26.53h-9.24c-.13-55.91-1.43-111.64-1.44-167.58,0-8.65-.31-16.48,1.01-25.21.22-1.45.4-3.02,1.4-4.2Z"/>
        <path class="cls-4" d="M446.73,496.95h-5.35c-3.03-20.91-4.9-42.06-8.35-62.91-5.01-30.28-15.22-59.33-24.73-88.36-.92.54-1.75,2.7-1.98,3.65-.65,2.72,4.82,16.05,6,19.81,4.27,13.52,8.58,27.26,11.99,41.02,7.04,28.37,9.24,57.85,13.17,86.78h-5.84c-3.29-27.13-6.2-54.39-12.68-80.94-4.32-17.69-9.63-35.14-14.42-52.7-.39-1.42-1.83-4.29-1.93-5.28-.55-5.68,1.09-15.35,1.31-21.58.03-.72-.24-1.91.24-2.43,3.81,3.2,6.02,7.4,8.11,11.83,5.1,10.81,8.55,23.55,11.55,35.14,9.87,38.14,15.55,77.29,22.9,115.97Z"/>
        <path class="cls-4" d="M340.7,298.5c.75.32,4.42,2.07,4.63,2.42.4,1.92.47,3.91.72,5.84,2.47,19.01.59,38.99.47,58.1-.2,31.51-.61,62.93-.97,94.36-.14,12.57.47,25.2-.47,37.71h-8.75c.26-9.96.17-19.97.47-29.93,1.17-39.27,2.74-78.45,3.4-117.7.15-8.81,1.01-17.86.53-26.75-.47-8.53-2.81-16.92-4.41-25.26,1.26-.19,3.2.71,4.38,1.21Z"/>
        <path class="cls-4" d="M364.05,309.2c.34.17,3.73,2.53,3.81,2.76l1.56,16.92-2.45,168.07h-7.3l.47-105.81c-.56-25.33,2.75-52.98.51-78.04-.16-1.78-.33-3.57-.48-5.35,1.01.76,2.98,1,3.89,1.46Z"/>
        <path class="cls-4" d="M114.05,319.9c.1-1.47.28-8.63.71-9.26.3-.44,6.27-2.72,7.31-3.39.42,0,.28,2.83.25,3.41-.47,8.43-.52,14.68-.47,23.08.34,49.78.19,99.61,1.46,149.32.12,4.62-.13,9.27-.02,13.88h-7.3c-.11-4.13.14-8.29.02-12.42-1.26-43.58-1.74-87.15-1.95-130.84-.05-11.32-.83-22.36-.02-33.78Z"/>
        <path class="cls-4" d="M166.58,496.95h-6.32c-.34-11.75-.19-23.53-.47-35.28-.79-33.45-2.28-67.13-2.96-100.64-.46-22.62-1.14-41.62,3.42-63.98.2-.99,1.35-6.43,1.56-6.71.15-.21,4.09-1.79,4.77-2.05,1.23-.47,2.61-.57,3.65-1.46.37-.12.24.37.25.73.1,3.14-3.95,15.5-4.73,20.09-3.55,20.94-1.85,42.46-1.59,63.54.41,32.83,1.12,65.54,1.95,98.25.23,9.16.06,18.35.47,27.5Z"/>
        <path class="cls-4" d="M149.07,302.88c.26-1.36,1.1-7.06,1.58-7.66.22-.28,5.78-2.81,6.48-3.01.99-.29.79.76.7,1.43l-.49.97c-.09.43.09,1.03,0,1.46-4.05,19.03-4.68,32.23-4.4,51.82.61,41.77,2.58,83.66,3.44,125.45.16,7.88-.33,15.76.47,23.61h-6.32c-.61-12.06-.6-24.16-.95-36.26-.71-24.31-1.33-48.61-1.95-72.96-.72-28.51-4.02-56.65,1.44-84.85Z"/>
        <path class="cls-4" d="M133.02,302.88c.54,1.11.12,3.33-.01,4.61-1.45,14.17-1.06,28.55-.98,42.84.16,31.06,1.16,62.3,1.5,93.34.2,17.77-.41,35.58.47,53.28h-7.3c-.37-27.97-.2-55.95-.47-83.92-.17-17.27-.38-34.69-.49-52.04-.1-16.26-1.62-33.11-.02-49.35.2-2.07.38-4.17.57-6.25l6.73-2.51Z"/>
        <path class="cls-4" d="M332.92,297.04c4.82,20.58,4.37,38.21,3.91,59.12-.9,40.46-2.76,81.12-3.93,121.56-.19,6.42.31,12.84-.47,19.23h-5.84c.78-18.22.56-36.47.95-54.74.62-29.14,1.87-58.39,2.47-87.51.43-20.6.7-34.89-3.42-55.22-.49-2.42-1.1-4.84-1.46-7.29,3.02.68,7,1.52,7.78,4.86Z"/>
        <path class="cls-4" d="M312.49,287.8c-.08-.35-.51-.59-.49-.97.38-.26,8.29,2.72,8.64,3.03.67.6,2.2,8.95,2.55,10.59,3.92,18.51,3.23,31.25,2.9,49.83-.63,35.24-1.71,70.39-2.43,105.55-.28,13.7-.28,27.42-.47,41.12h-6.32c.89-14.65.62-29.35.95-44.04.52-22.59,1.59-45.43,1.99-68.05.56-31.85,2.32-60.68-5.86-91.7-.04-.15.04-.33,0-.49l-.49-.97c-.07-.28.06-.67,0-.97-.2-1.02-.06-2.15-.97-2.92Z"/>
        <path class="cls-4" d="M109.67,313.09c1.03-.12,1.09-.06.97.97-.14,1.22.09,2.63,0,3.89-.48,6.89-.45,12.8-.47,19.68-.12,44.96,1.18,89.88,1.95,134.73.14,8.19-.48,16.46.47,24.58h-5.35c-1.28-24.76-2.24-49.48-3.91-74.15.15-34.92-1.21-69.72-.98-104.62-.11-1.44,1.78-2.54,2.94-3.14,1.33-.68,2.84-1.16,4.38-1.95Z"/>
        <path class="cls-4" d="M350.43,302.88l5.84,2.92c.16,2.77.76,5.51.97,8.27.42,5.62,0,9.96-.02,15.3-.2,46.23-.88,92.43-1.46,138.62-.12,9.65.13,19.32.02,28.96h-6.81c.45-17.6.25-35.16.47-52.79.41-33.48,1.28-67.14,1.5-100.64.09-13.21-.07-24.62-1.48-37.72-.05-.48.05-.98,0-1.46v-.97c.36-.33.84-.37.97-.49Z"/>
        <path class="cls-4" d="M376.7,315.53c.83.44,2.04,1.56,3.17,1.93.49.82.2,2.41.23,3.42.17,4.96.07,10.1,0,15.08,0,.49,0,.97,0,1.46-.02,1.13.01,2.27,0,3.4-.58,47.69-1.32,95.59-3.87,143.26-.23,4.26-.69,8.61-.99,12.87h-4.86c.97-9.9.32-19.96.47-29.93.45-31.08,1.13-62.25,1.46-93.39.2-19.05,1.6-38.58-.23-57.62-.07-.72-.73-1.93.25-2.43,1.36.88,3.13,1.27,4.38,1.95Z"/>
        <path class="cls-7" d="M304.22,287.32c-.28,2.48.61,2.31,2.92,2.43-6.14,22.31-17.39,42.69-27.73,63.23l-2.91-2.92c-1.16,8.49-1.93,16.99-2.46,25.52l.02,121.37h-3.4l-.02-126.24c.96-8.34,1.29-16.8,2.94-25.03l3.39,3.89c10.38-20.11,20.91-40.4,27.24-62.26Z"/>
        <path class="cls-7" d="M316.87,496.95h-3.4c.25-12.4.18-24.83.47-37.23.51-22.35,1.06-44.71,1.46-67.12.59-33.11,3.78-64.41-4.36-97.01,2.12.56,1.29-1.7,2.92-2.43,8.17,31.02,6.41,59.85,5.86,91.7-.39,22.63-1.47,45.46-1.99,68.05-.34,14.69-.06,29.39-.95,44.04Z"/>
        <path class="cls-7" d="M332.92,297.04c1.37.18,1.35-1.55,2.27-1.87,1.83-.64,6.28.66,5.52,3.33-1.18-.5-3.13-1.4-4.38-1.21,1.6,8.34,3.94,16.73,4.41,25.26.49,8.89-.38,17.94-.53,26.75-.67,39.25-2.24,78.44-3.4,117.7-.3,9.96-.2,19.97-.47,29.93h-3.89c.78-6.39.28-12.81.47-19.23,1.17-40.43,3.03-81.09,3.93-121.56.46-20.91.91-38.53-3.91-59.12Z"/>
        <path class="cls-7" d="M138.37,299.96c-1,1.17-1.18,2.74-1.4,4.2-1.33,8.73-1.02,16.56-1.01,25.21.01,55.94,1.31,111.67,1.44,167.58h-3.4c-.87-17.7-.27-35.51-.47-53.28-.34-31.05-1.34-62.29-1.5-93.34-.07-14.29-.46-28.67.98-42.84.13-1.28.55-3.5.01-4.61.65-2.79,3.56-2.4,5.35-2.92Z"/>
        <path class="cls-7" d="M149.07,302.88c-5.46,28.21-2.16,56.34-1.44,84.85.61,24.35,1.23,48.65,1.95,72.96.35,12.1.35,24.19.95,36.26h-3.89c-.3-8.83-.22-17.69-.47-26.53-1.11-40.3-2.68-80.76-3.4-121.11-.33-18.03-.7-28.55,2.9-46.43h3.4Z"/>
        <path class="cls-7" d="M326.6,299.48c4.12,20.34,3.85,34.62,3.42,55.22-.6,29.12-1.85,58.37-2.47,87.51-.39,18.26-.17,36.52-.95,54.74h-3.4c.18-13.7.18-27.42.47-41.12.72-35.16,1.8-70.31,2.43-105.55.33-18.59,1.02-31.33-2.9-49.83l3.4-.97Z"/>
        <path class="cls-7" d="M160.25,297.04c-4.56,22.36-3.89,41.36-3.42,63.98.68,33.52,2.16,67.19,2.96,100.64.28,11.75.12,23.54.47,35.28h-3.4c-.8-7.85-.3-15.73-.47-23.61-.86-41.78-2.83-83.67-3.44-125.45-.29-19.59.35-32.79,4.4-51.82.63.97,1.86,1.03,2.92.97Z"/>
        <path class="cls-7" d="M349.46,305.8c1.42,13.1,1.57,24.5,1.48,37.72-.22,33.5-1.09,67.16-1.5,100.64-.22,17.63-.01,35.2-.47,52.79h-3.89c.94-12.52.32-25.14.47-37.71.36-31.42.77-62.85.97-94.36.12-19.11,2.01-39.09-.47-58.1l3.4-.97Z"/>
        <path class="cls-7" d="M181.17,496.95h-3.4c-.87-16.89-.28-33.89-.47-50.85-.41-37.36-1.89-74.95-.51-112.34.36-9.75.53-19.97,1.99-29.62.06-.39.32-1.76.69-1.75.54,2.55,1.97,4.89,2.21,7.52.49,5.43-1.22,13.68-1.47,19.48-.24,5.34.45,10.74-.51,16.02l1.48,151.53Z"/>
        <path class="cls-7" d="M372.32,313.58c-.98.5-.32,1.71-.25,2.43,1.83,19.04.43,38.57.23,57.62-.32,31.14-1.01,62.31-1.46,93.39-.14,9.97.5,20.03-.47,29.93h-3.4l2.45-168.07-1.56-16.92c-.08-.22-3.47-2.58-3.81-2.76,2.79-1.5,5.93,2.87,8.27,4.38Z"/>
        <path class="cls-7" d="M92.16,322.82l1.94,84.14-1.46-7.29c-.75-.08-.69,1.29-.81,1.86-3.99,18.41-6.13,39.89-8.84,58.77-1.75,12.2-3.44,24.42-4.93,36.65h-3.89c2.8-19.66,5.5-39.35,8.35-59.01,2.56-17.66,7.36-38.07,7.19-55.51-.18-19.1-.24-38.08-.96-57.17-.46-.51-5.21,2.83-5.83,3.4-.47-2.49,3.32-6.33,5.58-6.34,1.1,0,2.51.82,3.66.5Z"/>
        <path class="cls-7" d="M306.17,496.95h-3.89c1-9.85.34-19.98.47-29.93.6-47.08,3.37-96.59.5-143.46-.14-2.36-1.06-5.48-1.01-7.78.07-3.15,2.36-6.36,2.72-9.49.46,4.59,1.34,9.27,1.7,13.87,3.32,42.84.45,89.58-.02,132.76-.16,14.69.35,29.41-.47,44.04Z"/>
        <path class="cls-7" d="M360.65,313.09c2.24,25.06-1.07,52.71-.51,78.04l-.47,105.81h-3.89c.11-9.64-.14-19.31-.02-28.96.58-46.19,1.26-92.39,1.46-138.62.02-5.34.44-9.68.02-15.3l3.4-.97Z"/>
        <path class="cls-7" d="M105.29,315.04c-1.16.6-3.05,1.7-2.94,3.14-.24,34.9,1.12,69.7.98,104.62,1.67,24.68,2.64,49.39,3.91,74.15h-3.4c-1.74-23.42-2.26-46.85-3.91-70.26-.87-30.46-.57-60.96-.93-91.48-.06-5.06-1.31-11.21-.51-16.27.43-2.71,4.72-7.43,6.81-3.89Z"/>
        <path class="cls-7" d="M125.72,311.64c-1.59,16.24-.08,33.09.02,49.35.1,17.35.32,34.77.49,52.04.27,27.97.09,55.96.47,83.92h-3.4c-.11-4.61.14-9.26.02-13.88-1.27-49.71-1.11-99.54-1.46-149.32-.06-8.4,0-14.65.47-23.08l3.4.97Z"/>
        <path class="cls-7" d="M399.07,329.63c-1.53-1.48-3.49-2.49-5.11-3.88l-.73,1.2c-.37,22.38-.06,44.85-1.47,67.11,9.61,31.62,14.88,64.37,20.29,96.95.33,1.96.78,3.92.64,5.93h-3.4c-6.02-31.84-9.99-64.15-18.97-95.33l-.99,1.68-.95,3.67.97-84.14c3.73,1.48,10.45.67,9.73,6.81Z"/>
        <path class="cls-7" d="M114.05,319.9c-.81,11.42-.03,22.46.02,33.78.21,43.69.69,87.26,1.95,130.84.12,4.13-.13,8.3-.02,12.42h-3.4c-.94-8.13-.33-16.39-.47-24.58-.77-44.85-2.07-89.77-1.95-134.73.02-6.88-.02-12.79.47-19.68.87,1.2,1.82,2.05,3.4,1.95Z"/>
        <path class="cls-7" d="M78.06,334.98c1.48-.42.61,1.09,1.29,1.48.54.31,1.9.3,2.6.47l1.94,31.13-2.82-6.17-1.06-1.12c-9.74,45.15-19.92,90.28-25.78,136.19h-3.89c6.66-47.7,16.6-94.78,27.36-141.65l.84-.86.97,1.94c-.94-7-.32-14.45-1.45-21.4Z"/>
        <path class="cls-7" d="M190.9,346.17l-.48.72.48.25c-.11,6.84-.02,13.56,0,20.43-.8.49-.78,2.46,0,2.92.09,38.92-.5,78.65.99,117.44.12,2.99-.12,6.03-.02,9.02h-3.89c-.11-10.78.14-21.58.02-32.36-.5-44.04-1.64-88.24-.5-132.27l.96-5.11c.46,2.28,2.76,5.38,2.91,7.59.19,2.8-.4,8.11-.47,11.37Z"/>
        <path class="cls-7" d="M403.93,336.44c-.22,6.23-1.86,15.9-1.31,21.58.1.99,1.54,3.87,1.93,5.28,4.79,17.55,10.11,35.01,14.42,52.7,6.48,26.55,9.4,53.82,12.68,80.94h-3.4c-3.7-23.22-5.44-47.08-10.45-70.05-4.61-21.14-11.33-41.83-16.79-62.74l-2.42,4.37c.57-9.81.98-19.63,1.45-29.45.03-.71.48-1.41.49-1.68l3.4-.97Z"/>
        <path class="cls-7" d="M296.93,496.95h-3.89c-.37-49.04,1.14-98.1.51-147.15-.03-2.42-.77-4.64-.53-7.29.28-3.14,2.14-6.06,3.18-8.98,1.43,19.65,1.31,39.39,1.24,59.12,0,1.26-.53,2.46-.53,3.85-.11,33.49.13,66.98.02,100.46Z"/>
        <path class="cls-7" d="M40.12,496.95c6.16-43.44,13.79-86.1,24.94-128.51,1.99-7.56,3.94-15.89,6.43-23.24.19-.56.46-2.7,1.45-2.43.25.07,2.04,3.81,1.68,4.55-14.08,48.99-23.74,99.08-30.62,149.63h-3.89Z"/>
        <path class="cls-7" d="M383.51,340.33c-.64,47.27-1.33,93.57-3.89,140.81-.28,5.24-.28,10.56-.49,15.8h-3.89c.3-4.26.76-8.61.99-12.87,2.56-47.67,3.29-95.57,3.87-143.26l3.4-.49Z"/>
        <path class="cls-7" d="M441.38,496.95h-3.89c-3.93-28.94-6.13-58.41-13.17-86.78-3.41-13.76-7.73-27.5-11.99-41.02-1.19-3.76-6.65-17.09-6-19.81.23-.95,1.06-3.11,1.98-3.65,9.51,29.03,19.72,58.08,24.73,88.36,3.45,20.85,5.31,42,8.35,62.91Z"/>
        <path class="cls-7" d="M263.85,496.95h-3.89l-.02-117c1.14-6.14.09-13.19,1.11-19.32.13-.78,3.5-9.62,4.02-9.6-.2,8.91-.51,18.06-1.24,26.98l.02,118.94Z"/>
        <path class="cls-7" d="M225.43,496.95c-.11-8.35.14-16.72.02-25.07-.46-31.53,1.1-65.63-1.97-96.77-.88-8.9-3.08-18.05-3.88-26.76-.05-.53-.21-2.68.24-2.67,2.81,1.44,3.31,2.35,3.99,5.26,5.38,23.32,4.77,52.66,5.03,76.68.26,23.1-.24,46.23-.02,69.33h-3.4Z"/>
        <path class="cls-7" d="M282.34,496.95l-.02-134.5.51-3.63c.81.12,1.65,2.43,2.18,2.42.65-.01.69-2.35,1.7-2.42l-.48,138.13h-3.89Z"/>
        <path class="cls-7" d="M205.49,496.95h-3.89l-.47-95.59c-.87-8.84-.47-17.85-.97-26.75-.44-7.84-1.85-15.77-1.72-23.57.85,2.69,3.39,6.02,4.03,8.63,1.63,6.66,1.27,18.5,1.55,25.69.96,25.14,1.24,50.67,1.5,75.84.12,11.92-.13,23.86-.02,35.77Z"/>
        <path class="cls-7" d="M63.46,496.95l20.18-127.92c.37,0,2.32,6.09,2.16,6.98-3.78,21.73-7.26,43.52-10.59,65.33-2.82,18.5-5.64,37.07-7.86,55.61h-3.89Z"/>
        <path class="cls-7" d="M253.64,377.78l-.48.72.48.25c-.23,13.78-.82,27.79-.99,41.57-.33,25.54-.17,51.09-.47,76.63h-3.89c.64-40.26.95-80.56,1.43-120.89.25-1.9,2.5-3.39,3.91-4.6.02,2.1,0,4.22,0,6.32Z"/>
        <path class="cls-7" d="M423.39,496.95h-3.4c-6.38-38.95-13.02-77.92-24.71-115.66l1.37-5.94c.76.07.74.74.94,1.25,9.68,24.67,15.63,59.35,20.32,85.71,2.04,11.49,3.99,23.09,5.49,34.63Z"/>
        <path class="cls-7" d="M240.99,496.95h-3.4c.06-35.61,1.3-71.12,1.45-106.77.27-2.23,2.34-4.96,3.9-6.56l-1.94,113.33Z"/>
        <polygon class="cls-7" points="401.99 496.95 398.1 496.95 385.5 428.07 387.15 418.15 401.99 496.95"/>
        <polygon class="cls-7" points="88.76 496.95 84.87 496.95 95.81 423.01 97.53 435.4 88.76 496.95"/>
        <path class="cls-7" d="M391.29,496.95h-3.89c-.43-5.91-1.61-11.76-2.59-17.6-1.6-9.59-2.75-13.44-1.75-23.46.04-.37.34-1.76.69-1.75l7.54,42.81Z"/>
        <polygon class="cls-7" points="99.46 496.95 95.57 496.95 99.7 465.81 100.96 484.06 99.46 496.95"/>
        <path class="cls-3" d="M324.17,164.26c-.83-2.18-4.18-5.54-6.57-3.41-1.53,1.36-5.24,14.27-6.22,17.14-.27.79-.08,1.59-1.31,1.34.11-8.03-2.46-16.68-2.43-24.8l-9.68,1.99c.39,7.6-.57,15-5.41,21.1-17.68,22.24-53.16,6.4-47.7-21.59-6.6-2.71-12.94-2.42-19.42.45,5.68,20.37-13.42,37.76-33.44,32.21-11.91-3.3-18.78-14.24-19.62-26.15-.07-1.02.62-2.51.31-3.16-.61-1.28-4.21-1.2-5.62-1.46l.48,25.78c-1.23.21-1.64-1.75-2.03-2.59-1.14-2.48-5.94-14.98-6.96-15.89s-3.16-.44-3.66.49c-4.39-8.09-7.24-16.93-9.4-25.87-3.85-15.94-5.67-27.13,2.4-42.17,3.1-5.77,7.51-10.7,11.09-16.15,3.73-5.67,6.7-11.9,10.99-17.22,13.77-17.05,38.62-24.05,58.52-13.44,20.8-16.64,47.12-6.22,64.29,10.25,7.3,7.01,17.95,17.25,24.31,24.81,9.98,11.86,14.93,40.56,13.37,55.69-.8,7.78-2.65,15.7-6.32,22.62ZM292.55,137.02l-.25.98c-4.73-1.57-11.09-1.99-16.05-1.47-6.05.64-13.23,3.74-19.51,4.32-2.27.21-5.25.6-5.04-2.58.21-3.22,5.8-4.53,8.38-5.27,5.76-1.65,15.18-3.78,21.04-3.27,1.43.12,2.73.99,4.14.73-7.53-6.3-12.62-14.43-14.84-24.07-2.43-10.55-.35-22.2-11.93-27.47-12.97-5.9-30.66-6.07-44.25-2.45-31.31,8.34-15.75,32.23-27.62,52.14-1.16,1.94-2.9,4.1-4.47,5.74,1.76-.02,3.45-1.14,5.25-1.56,5.83-1.35,14.15.22,20.06,1.54,4.17.93,12.2,2.23,10.61,7.97-1.29.63-2.65.63-4.05.55-6.56-.36-14.23-3.39-20.91-3.9-5.32-.41-10.77.35-15.82,1.96l-.24-1.94c-1.17,2.24-8.54,4.79-9.38,5.95-.9,1.24-.47,6-.6,7.67.29.28,7.1-.75,7.99-1.01,1.39-.41,4.02-3.41,5.67-4.54,12.26-8.41,36.18-7.25,43.97,6.97,6.43-3.52,14.35-3.67,20.94-.51,6.78-14.17,28.51-16.54,41.42-10.24,2.64,1.29,7.03,5.77,8.4,6.2,2.86.9,8.06.13,11.21,1.19.34-.35-1.28-7.41-2.06-8.14-4.14-1.64-8.21-3.7-12.04-5.96-.33-.2-1.13-1.59-1.94-1.22l1.94,1.71ZM266.18,143c-31.38,3.53-20.78,46.08,8.98,42.05,9.43-1.28,17.67-9.65,19.61-18.82,3.98-18.83-12.86-25.01-28.59-23.24ZM197.12,144.46c-39.57,2.91-18.71,52.68,11.62,40.8,10.44-4.09,15.86-14.1,14.74-25.13-1.23-12.08-16.04-16.43-26.36-15.67Z"/>
        <path class="cls-8" d="M291.58,252.78c-.23,5.5-.12,12.21-1.02,17.7-1.45,8.86-11.74,21.94-17.06,29.63-7.12,10.29-15.43,20.4-22.19,30.82-3.09,4.76-4.51,6.92-3.92,12.98.64,6.69,5.37,11.28,2.73,17.93-.5,1.27-1.77,3.05-2.55,4.25-.44,0-2.56-6.15-3.08-7.13-3.26-6.2-9.62-10.87-13.51-16.68-.84-3.03,3.17-14.74,3.18-18.8,0-.54-.01-1.03-.32-1.5-11.17-12.22-22.55-24.82-32.42-38.12-9.21-12.41-7.85-15.2-8.56-30.11,11.1,11.69,25.36,30.59,42.62,32.04,17.24,1.45,25.91-3.45,37.4-15.5,7.17-7.52,13.13-16.09,18.72-24.81-.11,2.42.1,4.88,0,7.3Z"/>
        <path class="cls-2" d="M292.06,239.16c-.63,2.38-.38,4-.49,6.32-5.59,8.72-11.55,17.3-18.72,24.81-11.49,12.04-20.15,16.95-37.4,15.5-17.26-1.45-31.52-20.35-42.62-32.04-.02-.45-.48-.87-.49-.97-.12-1.76.08-3.58,0-5.35,6.68,6.73,22.82,20.47,31.49,23.72,29.24,10.96,47.55-8.86,64.56-28.59.94-1.09,2.31-2.95,3.66-3.4Z"/>
        <path class="cls-2" d="M324.17,164.26c2.65,6.96-2.82,23.98-5.6,31.12-2.18,5.59-5.57,13.75-12.88,12.65,1.74-7.63,4.27-21.09,4.38-28.7,1.23.25,1.04-.56,1.31-1.34.99-2.88,4.7-15.79,6.22-17.14,2.4-2.13,5.74,1.23,6.57,3.41Z"/>
        <path class="cls-2" d="M154.9,165.72c.5-.93,2.66-1.39,3.66-.49s5.82,13.41,6.96,15.89c.39.84.8,2.8,2.03,2.59,1.32,8.92,3.03,18.01,5.35,26.75-2.18.21-4.28-.7-5.83-2.2-4.72-4.54-12.57-27.44-13.08-34.1-.11-1.43.37-7.45.91-8.45Z"/>
        <path class="cls-7" d="M301.31,271.27c.24,2.18-.29,2.06,1.65,3.73.67.58.76-.56,1.27,1.14-1.13.32-.83,1.32-1.05,2.11-6.27,22.28-19.87,42.85-30.82,63.05l-1.19.5c-1.88-2.71-1.59-3.64,0-6.46.18-.32.77-.37.95-.71,11.34-20.24,23.4-40.69,29.2-63.35Z"/>
        <path class="cls-7" d="M194.3,280.02c8.92,17.58,21.49,33.17,32.71,49.26,1.04,1.65-.84,2.71-1.11,4.24-12.48-16.13-24.82-32.8-34.04-51.07,1.45-.19,2.67-.76,2.43-2.43Z"/>
        <path class="cls-7" d="M292.55,283.91c-7.24,16.5-17.42,31.5-27.01,46.68-.99,1.68-3.15-2.38-2.92-2.91,6.41-9.23,12.63-18.75,18.15-28.55,3.02-5.36,6.9-12.11,9.34-17.65.13,1.26,1.19,2.31,2.43,2.43Z"/>
        <path class="cls-7" d="M380.1,320.88c-.03-1,.25-2.6-.23-3.42-1.13-.37-2.35-1.49-3.17-1.93,4.14-2.59,9.47,4.54,3.4,5.35Z"/>
        <path class="cls-7" d="M356.27,305.8l-5.84-2.92c.06-.05-.15-.68.08-.87.93-.79,5.44,1.15,6.03,2.36.5,1.02-.27,1.35-.27,1.43Z"/>
        <path class="cls-7" d="M309.57,289.26c-.25-.89-1.39-2.01-.97-3.4,2.98.63,4.42,1.57.97,3.4Z"/>
        <path class="cls-7" d="M380.1,335.95c2.99-.73,2.84,3.08,0,1.46,0-.49,0-.97,0-1.46Z"/>
        <path class="cls-7" d="M305.2,278.56c.08.08.76-.16.91.04.33.42.31,3.76-.91,3.85.11-1.28.35-2.62,0-3.89Z"/>
        <path class="cls-7" d="M109.67,313.09c.26-.13.51-.82,1.46-.48.32.73-.46,1.29-.48,1.46.12-1.03.06-1.09-.97-.97Z"/>
        <path class="cls-7" d="M81.95,331.58c0-.34-.59.07,0-1.46v1.46Z"/>
        <path class="cls-7" d="M313.47,290.72c-.93-.76-.74-1.93-.97-2.92.91.77.77,1.9.97,2.92Z"/>
        <path class="cls-7" d="M145.66,301.42l.49-1.46c-.12.85-.46,1.33-.49,1.46Z"/>
        <path class="cls-7" d="M304.71,284.88l.49-1.46c-.11.91-.48,1.38-.49,1.46Z"/>
        <path class="cls-7" d="M304.22,286.83l.49-1.46c-.12.88-.48,1.38-.49,1.46Z"/>
        <path class="cls-7" d="M383.51,332.06c0-.28,0-.69,0-.97v.97Z"/>
        <path class="cls-7" d="M313.95,292.67c-.01-.05-.31-.28-.49-.97l.49.97Z"/>
        <path class="cls-7" d="M349.46,304.34c-.04-.44-.86-.19,0-.97v.97Z"/>
        <path class="cls-7" d="M157.34,294.61l.49-.97c-.11.83-.47.92-.49.97Z"/>
        <path class="cls-2" d="M191.38,253.27l.49-.49c-.16.16-.31.35-.49.49Z"/>
        <path class="cls-7" d="M237.1,387.51l-4.85-35.01c1.51.28,3.64.79,4.16,2.4.48,4.84,1.52,9.62,2.1,14.44.38,3.18,1.41,8.72,1.04,11.62-.29,2.34-2.22,4.17-2.45,6.55Z"/>
        <path class="cls-8" d="M253.64,378.76l-.48-.25.48-.72c0,.32,0,.65,0,.97Z"/>
        <path class="cls-8" d="M190.9,370.49c-.78-.46-.8-2.43,0-2.92,0,.97,0,1.95,0,2.92Z"/>
        <path class="cls-8" d="M190.9,347.14l-.48-.25.48-.72c0,.32,0,.65,0,.97Z"/>
        <path class="cls-8" d="M292.55,136.54c3.82,2.26,7.9,4.32,12.04,5.96.79.73,2.4,7.79,2.06,8.14-3.15-1.06-8.35-.29-11.21-1.19-1.36-.43-5.76-4.91-8.4-6.2-12.9-6.3-34.64-3.93-41.42,10.24-6.59-3.16-14.51-3.01-20.94.51-7.78-14.22-31.7-15.38-43.97-6.97-1.66,1.14-4.29,4.13-5.67,4.54-.89.26-7.7,1.29-7.99,1.01.12-1.67-.3-6.44.6-7.67.84-1.16,8.21-3.71,9.38-5.95l.24,1.94c5.05-1.61,10.51-2.37,15.82-1.96,6.68.52,14.35,3.54,20.91,3.9,1.4.08,2.76.08,4.05-.55,1.59-5.75-6.44-7.04-10.61-7.97-5.91-1.32-14.23-2.89-20.06-1.54-1.8.42-3.49,1.54-5.25,1.56,1.57-1.65,3.31-3.81,4.47-5.74,11.88-19.91-3.69-43.81,27.62-52.14,13.59-3.62,31.28-3.45,44.25,2.45,11.58,5.27,9.5,16.92,11.93,27.47,2.22,9.65,7.31,17.77,14.84,24.07-1.41.26-2.71-.6-4.14-.73-5.85-.51-15.27,1.62-21.04,3.27-2.58.74-8.17,2.05-8.38,5.27-.2,3.19,2.77,2.79,5.04,2.58,6.28-.58,13.46-3.68,19.51-4.32,4.95-.52,11.31-.1,16.05,1.47l.25-.98v-.49Z"/>
        <path class="cls-8" d="M266.18,143c15.73-1.77,32.57,4.41,28.59,23.24-1.94,9.17-10.18,17.54-19.61,18.82-29.76,4.03-40.36-38.53-8.98-42.05ZM266.65,151.25c-4.9,1.26-5.38,12.7.6,14.25,8.71,2.25,9.72-16.9-.6-14.25Z"/>
        <path class="cls-8" d="M197.12,144.46c10.31-.76,25.13,3.59,26.36,15.67,1.12,11.03-4.3,21.04-14.74,25.13-30.32,11.88-51.19-37.89-11.62-40.8ZM201.46,152.69c-7.5,1.7-4.11,18.51,4.01,13.74,5.95-3.5,3.08-15.35-4.01-13.74Z"/>
        <path class="cls-2" d="M292.55,136.54v.49l-1.94-1.71c.8-.37,1.6,1.02,1.94,1.22Z"/>
        <path class="cls-2" d="M246.7,198.38c1.73-.26,1.82,1.1,1.39,2.39-.68,1.99-7.69,5.01-9.81,5.28-2.61.33-12.44-1.76-12.86-4.6-.59-4,5.01-.51,7.3.02,3.97.93,4.95.93,8.75-.5,1.45-.54,4.07-2.41,5.23-2.59Z"/>
        <path class="cls-8" d="M307.63,154.54l-9.68,1.99c.39,7.6-.57,15-5.41,21.1-17.68,22.24-53.16,6.4-47.7-21.59-6.6-2.71-12.94-2.42-19.42.45,5.68,20.37-13.42,37.76-33.44,32.21-11.91-3.3-18.78-14.24-19.62-26.15-.07-1.02.62-2.51.31-3.16-.61-1.28-4.21-1.2-5.62-1.46l.48,25.78c1.32,8.92,3.03,18.01,5.35,26.75,3.75,14.09,9.15,26.59,19.46,36.97,6.68,6.73,22.82,20.47,31.49,23.72,29.24,10.96,47.55-8.86,64.56-28.59.94-1.09,2.31-2.95,3.66-3.4.73-2.77,2.47-3.87,3.81-6.17,4.5-7.71,7.83-16.24,9.81-24.96,1.74-7.63,4.27-21.09,4.38-28.7.11-8.03-2.46-16.68-2.43-24.8ZM225.42,201.45c-.59-4,5.01-.51,7.3.02,3.97.93,4.95.93,8.75-.5,1.45-.54,4.07-2.41,5.23-2.59,1.73-.26,1.82,1.1,1.39,2.38-.68,1.99-7.69,5.01-9.81,5.28-2.61.33-12.44-1.76-12.86-4.6Z"/>
        <path class="cls-3" d="M266.65,151.25c10.32-2.66,9.32,16.5.6,14.25-5.98-1.54-5.5-12.99-.6-14.25Z"/>
        <path class="cls-3" d="M201.46,152.69c7.09-1.61,9.96,10.24,4.01,13.74-8.12,4.77-11.51-12.03-4.01-13.74Z"/>
        <path class="cls-2" d="M263.69,227.96c-8.22,11.13-14.99,14.94-29.42,13.61-8.1-.74-13.32-5.81-18.73-11.18,1.43-.55,4.01-.14,5.59,0,4.24.4,8.94,1.26,13.14,1.45,9.82.43,19.81-2.24,29.42-3.89Z"/>
        <path class="cls-6" d="M215.54,230.39c-.21-.21-2.72-.11.48-1.7,2.39-1.19,13.9-5.05,16.29-5.13,3.06-.1,5.46,2.08,7.26,1.97,1.39-.09,3.63-1.99,5.5-2.31,6.03-1.04,13.92,2.91,20.07,3.29-.04.76-1.19,1.09-1.46,1.45-9.61,1.65-19.6,4.32-29.42,3.89-4.2-.19-8.9-1.05-13.14-1.45-1.58-.15-4.16-.56-5.59,0Z"/>
      </g>
    </g>
  </g>
</svg>